/* XPM */
static char *_383ee3fa0f44a4bc95c1552124acf4dURfwqSWQCyvFViJm[] = {
/* columns rows colors chars-per-pixel */
"50 50 87 1 ",
"  c gray93",
". c #FEFEFE",
"X c #EEEEEE",
"o c #FDFFFC",
"O c #ECEEED",
"+ c #E5190A",
"@ c #EF1506",
"# c #E5180B",
"$ c #F91001",
"% c #FFFDFE",
"& c #FEFEFD",
"* c #F6E9E8",
"= c #EF1505",
"- c #F5EAE8",
"; c #FB0F01",
": c #F81101",
"> c #FFFAF9",
", c #F6EAE7",
"< c #F53A08",
"1 c #F53A09",
"2 c #F63909",
"3 c #F53A07",
"4 c #EE5025",
"5 c #EA6648",
"6 c #EA6649",
"7 c #EA6546",
"8 c #F43A0A",
"9 c #E96549",
"0 c #E27F75",
"q c #E28781",
"w c #E2887F",
"e c #E27F79",
"r c #F3EBEB",
"t c #F4EBE5",
"y c #F96400",
"u c #F18F49",
"i c #F9BA8F",
"p c #FCB98B",
"a c #F56505",
"s c #F8BB8F",
"d c #F0ECEA",
"f c #F1ECEA",
"g c #F5ECE6",
"h c #F1EDEA",
"j c #FFFCF6",
"k c #FFFDFB",
"l c #E9A977",
"z c #EAB17D",
"x c #F18F48",
"c c #F19048",
"v c #F76402",
"b c #F28F46",
"n c #F5A56B",
"m c #FAB98F",
"M c #F5DCC6",
"N c #F4D4BF",
"B c #F5DDC8",
"V c #F5DCC7",
"C c #F1E1D7",
"Z c #F56506",
"A c #F9BA91",
"S c #F9BA8E",
"D c #F66505",
"F c #F76405",
"G c #FB6300",
"H c #FCB98C",
"J c #F5DCC8",
"K c #F16609",
"L c #F1EEEB",
"P c #FCB98A",
"I c #F96302",
"U c #FEB886",
"Y c #FABA8F",
"T c #F6BB93",
"R c #EAB180",
"E c #E9A976",
"W c #F86400",
"Q c #F5EBE5",
"! c #F7BB91",
"~ c #FCBA8B",
"^ c #FCB88A",
"/ c #F7EAE2",
"( c #FFFDFA",
") c #F0EDEA",
"_ c #EFEDEE",
"` c #FFFEFB",
"' c white",
/* pixels */
" ....   ...X   ...X  X...X  X...   ....   ....   .",
" ....   ...X   ...X  X...X  X...   ....   ....   .",
".XXXX...XXX....XXX....XXX....XXX...XXXX...XXXX...X",
".   X...   ....   ....   ....   ...X   ...X  X...X",
".   X...   ....   ....   ....   ...X   ...X  X...X",
".   X...   ....   ....   ....   ..oX   ...X  X...X",
" ....O +@@@@@@@@@@@@@@@@@@@@@@@@#  ....   ....   .",
" ....  @$$$$$$$$$$$$$$$$$$$$$$$$@  ....   ....   .",
" ....  @$$$$$$$$$$$$$$$$$$$$$$$$@  ....   ....   .",
".XXXX..@$$$$$$$$$$$$$$$$$$$$$$$$@..XXXX...XXXX...X",
"%   X.&@$$$$$$$$$$$$$$$$$$$$$$$$@..X   ...X  X...X",
".*@@@@@$$$$$$$$$$$$$$$$$$$$$$$$$$@=@@@@@@@@- X...X",
".*$$$$$$$$$$$$$$$$$$$$$$$$$$$$$$$$;$$$$$$:$*XX...X",
" >$$$$$$$$$$$$$$$$$$$$$$$$$$$$$$$$$$$$$$$$$>..   .",
" >$$$$$$$$$$$$$$$$$$$$$$$$$$$$$$$$$$$$$$$$$>..   .",
" >$$$$$$$$$$$$$$$$$$$$$$$$$$$$$$$$$$$$$$$$$>..   .",
".,<111211111111134565656556711118565590qwqerXX...X",
".tyyyyyyyyyyyyyyyuiiiiiiiiipyyyyaiiisid...X  X...X",
".tyyyyyyyyyyyyyyyuiiiiiiiiipyyyyaiiiiif...X  X...X",
".gyyyyyyyyyyyyyyyuiiiiiiiiipyyyyaiiiiih...XXXX...X",
" jyyyyyyyyyyyyyyyuiiiiiiiiipyyyyaiiiiik   ....   .",
"lzxcxcxvyyyybccxuniiiiiiiiipyyyyaiimiiMNNNBBBVNNC.",
"yaiiiisZyyyypiiiAimiiiiiiiipyyyyaiiiiiiiiiiiiiiSN.",
"yDiiiiiFyyyGHiiiiiiiiiiiiiipyyyyaiiiAiiiiiiiiiimMX",
"yaiiiiiZyyyypiiiiiiiiiiiiiipyyyyaiiiiiiiiiiiiiiiJX",
"yaiiiiiZyyyypiiiiiiiiiiiiiipyyyyaiiiiiiiiiiiiiiiJX",
"yaiiiiiZyyyypiiiiiiiiiiiiiipaaaaKpppppiiiiiiiiiiML",
"yaiiiiiZyyyypiiiiiiiiiiiiiiiiiiipyyyyypiiiiiiiiiii",
"yaiiiiiZyyyypiiiiiiiiiiiiiiiiiiipyyyyypiiiiiiiiiii",
"yaiiiiiZyyyypiiiiiiiiiiiiiisiiiipyyyyypiiiiiiiiiii",
"yaiiiiiZyyyyPiiiiiiiiiiiiiiiiiiipyyyyIpiiiiiiiiiii",
"yapppppKaaaapiiiiiiiiiiiiiiipPppUyyyyyUpppppppppYT",
"yyyyyyypiiiiiiiiiiiiiiiiiiipyyyyyyyyyyyyyyyyyyyyRX",
"yyyyyyypiiiiiiiiiiiiiiiiiiipyyyyyyyyyyyyyyyyyyyyl.",
"yyyyyyypiiiiiiiiiiiiiiiiiiipyyyyyyyyyyyyyyyyyyyyl.",
"yyyyyyypiiiiiiiiiiiiiiiiiiiPyyyyyyyyyyyyyyyyyyyyE.",
"yyyyyyWpiiiiiiiiiiiiiiiiiiipyyyyyyyyyyyyyyyyyyyyl.",
"jtQtgjj!iiiiiiiiiiiiiiiiiiim~ppppppppppppp^/tgjj(X",
".   X..Tiiiiiiiiiiiiiiiiiiiiiiiiiiiiiiiiiii) X...X",
".   X..Tiiiiiiiiiiiiiiiiiiiiiiiiiiiiiiiiiii) X...X",
"X...._XTiiiiiiiiiiiiiiiiiiiiiiiiiiiiiiiiiii`..XXX.",
" ....  Tiiiiiiiiiiiiiiiiiiiiiiiiiiiiiiiiiii`..   .",
" ....  d```h)))```h))h```h))h```)))````)))`...   .",
"X....XXX...XXXX...XXXX...XXXX...XXX....XXX....XXX.",
".   X...   ....   ....   ....   ...X   ...X  X...X",
".   X...   ....   ....   ....   ...X   ...X  X...X",
".   X...   ....   ....   ....   ...X   ...X  X...X",
"X....XXX...XXXX...XXXX...XXXX...XXX....XXX....XXX.",
" ....   ...X   ...X  X...X  X...   ....   ....   .",
"''''''''''''''''''''''''''''''''''''''''''''''''''"
};
